# Blender v2.79 (sub 0) OBJ File: 'platform.blend'
# www.blender.org
mtllib platform2.mtl
v 1.533980 -0.004239 0.500000
v -1.533980 0.004239 -0.500000
v -1.533980 0.004239 0.500000
v 1.533980 -0.004239 -0.500000
v 1.966990 0.245761 0.500000
v 1.966990 0.245761 -0.500000
v -1.966990 0.254239 -0.500000
v -1.966990 0.254239 0.500000
vt 0.000705 0.998632
vt 1.001415 0.672453
vt 1.001415 0.998632
vt 0.000705 0.672453
vt 0.586082 0.344095
vt 0.669448 0.177362
vt 0.669448 0.344095
vt 0.586082 0.177362
vt 0.585375 0.344095
vt 0.668742 0.177362
vt 0.668742 0.344095
vt 0.585375 0.177362
vn 0.0028 1.0000 0.0000
vn -0.5000 0.8660 0.0000
vn 0.5000 0.8660 0.0000
usemtl FrontColor.001
s 1
f 1/1/1 2/2/1 3/3/1
f 4/4/1 2/2/1 1/1/1
f 5/5/2 4/6/2 1/7/2
f 4/6/2 5/5/2 6/8/2
f 7/9/3 3/10/3 2/11/3
f 3/10/3 7/9/3 8/12/3
