# Blender v2.79 (sub 0) OBJ File: ''
# www.blender.org
mtllib power.mtl
v 0.003616 0.450758 0.013330
v -0.246384 0.075758 0.263330
v 0.253616 0.075758 0.263330
v -0.246384 0.075758 -0.236670
v 0.253616 0.075758 -0.236670
v 0.003616 -0.299242 0.013330
vt 0.181888 0.242535
vt 0.000000 0.485071
vt 0.000000 0.000000
vt 0.363775 0.485071
vt 0.363775 0.000000
vt 0.363775 0.764706
vt 0.681888 0.500000
vt 0.681888 1.000000
vt 1.000000 0.500000
vt 0.681888 0.264706
vt 1.000000 0.000000
vt 0.318112 0.485071
vt 0.318112 0.985071
vt 0.000000 0.720365
vt 0.681888 0.000000
vt 0.363775 0.235294
vn 0.0000 0.5547 0.8321
vn -0.8320 0.5547 0.0000
vn 0.0000 1.0000 0.0000
vn 0.8321 0.5547 0.0000
vn 0.0000 0.5547 -0.8321
vn 0.0000 -0.5547 -0.8321
vn 0.8321 -0.5547 -0.0000
vn 0.0000 -0.5547 0.8321
vn -0.8321 -0.5547 -0.0000
usemtl FrontColor.001
s 1
f 1/1/1 2/2/1 3/3/1
f 4/4/2 2/2/2 1/1/2
f 3/3/3 4/4/3 2/2/3
f 4/4/3 3/3/3 5/5/3
f 5/5/4 1/1/4 3/3/4
f 1/1/5 5/5/5 4/4/5
f 5/6/6 6/7/6 4/8/6
f 5/9/7 3/10/7 6/11/7
f 2/12/8 6/13/8 3/14/8
f 4/15/9 6/7/9 2/16/9
